<?xml version="1.0" encoding="UTF-8" standalone="no"?>
<!-- Created with Inkscape (http://www.inkscape.org/) -->

<svg
   xmlns:dc="http://purl.org/dc/elements/1.1/"
   xmlns:cc="http://creativecommons.org/ns#"
   xmlns:rdf="http://www.w3.org/1999/02/22-rdf-syntax-ns#"
   xmlns:svg="http://www.w3.org/2000/svg"
   xmlns="http://www.w3.org/2000/svg"
   xmlns:sodipodi="http://sodipodi.sourceforge.net/DTD/sodipodi-0.dtd"
   xmlns:inkscape="http://www.inkscape.org/namespaces/inkscape"
   width="744.09448"
   height="1052.3622"
   viewBox="0 0 0 1052.3622"
   id="svg2"
   version="1.1"
   inkscape:version="0.91 r13725"
   sodipodi:docname="mosquito.svg">
  <defs
     id="defs4">
    <filter
       style="color-interpolation-filters:sRGB;"
       inkscape:label="Invert"
       id="filter4042">
      <feColorMatrix
         type="hueRotate"
         values="180"
         result="color1"
         id="feColorMatrix4044" />
      <feColorMatrix
         values="-1 0 0 0 1 0 -1 0 0 1 0 0 -1 0 1 -0.21 -0.72 -0.07 2 0 "
         result="color2"
         id="feColorMatrix4046" />
    </filter>
  </defs>
  <sodipodi:namedview
     id="base"
     pagecolor="#ffffff"
     bordercolor="#666666"
     borderopacity="1.0"
     inkscape:pageopacity="0.0"
     inkscape:pageshadow="2"
     inkscape:zoom="1.7555104"
     inkscape:cx="-45.696136"
     inkscape:cy="1026.3924"
     inkscape:document-units="px"
     inkscape:current-layer="layer2"
     showgrid="true"
     units="px"
     fit-margin-top="-0.2"
     fit-margin-left="0"
     fit-margin-right="0"
     fit-margin-bottom="0"
     inkscape:object-paths="true"
     inkscape:snap-nodes="true"
     inkscape:snap-midpoints="true"
     inkscape:snap-intersection-paths="true"
     inkscape:snap-smooth-nodes="true"
     inkscape:object-nodes="true"
     inkscape:window-width="1366"
     inkscape:window-height="705"
     inkscape:window-x="0"
     inkscape:window-y="30"
     inkscape:window-maximized="1"
     inkscape:snap-others="false" />
  <metadata
     id="metadata7">
    <rdf:RDF>
      <cc:Work
         rdf:about="">
        <dc:format>image/svg+xml</dc:format>
        <dc:type
           rdf:resource="http://purl.org/dc/dcmitype/StillImage" />
        <dc:title />
      </cc:Work>
    </rdf:RDF>
  </metadata>
  <g
     inkscape:groupmode="layer"
     id="layer2"
     inkscape:label="plane"
     style="display:inline">
    <path
       style="display:inline;fill:none;fill-rule:evenodd;stroke:#008000;stroke-width:1px;stroke-linecap:butt;stroke-linejoin:miter;stroke-opacity:1"
       d="m 0.00722204,-142.7523 -3.14279994,28.39285 -1.0715,33.660717 -0.2678,34.248743 4.48209994,0.002 z"
       id="rudder-left"
       inkscape:connector-curvature="0" />
    <path
       id="rudder-right "
       style="fill:none;fill-rule:evenodd;stroke:#008000;stroke-width:1px;stroke-linecap:butt;stroke-linejoin:miter;stroke-opacity:1"
       d="m 4.4893221,-46.44998 -0.2678,-34.248754 -1.0715,-33.660716 -3.14280006,-28.39285 0,96.3041 z"
       inkscape:connector-curvature="0"
       sodipodi:nodetypes="cccccc" />
    <path
       style="display:inline;fill:#f2f2f2;fill-rule:evenodd;stroke:#008000;stroke-width:1px;stroke-linecap:butt;stroke-linejoin:miter;stroke-opacity:1"
       d="m -28.802878,-16.64048 -399.747092,-5.48807 -0.3344,3.8314 394.022192,35.1877 0,-6.01981 0.8622,-5.92735 1.1581,-7.96225 z"
       id="wing-left"
       inkscape:connector-curvature="0"
       sodipodi:nodetypes="cccc" />
    <path
       style="display:inline;fill:#f2f2f2;fill-rule:evenodd;stroke:#008000;stroke-width:1px;stroke-linecap:butt;stroke-linejoin:miter;stroke-opacity:1"
       d="m 28.817722,-16.64048 399.747078,-5.48807 0.3344,3.8314 -394.022178,35.1877 0,-6.01981 -0.8622,-5.92735 -1.1581,-7.96225 z"
       id="wing-right"
       inkscape:connector-curvature="0"
       sodipodi:nodetypes="cccc" />
    <path
       style="fill:#b3b3b3;fill-rule:evenodd;stroke:#008000;stroke-width:1px;stroke-linecap:butt;stroke-linejoin:miter;stroke-opacity:1"
       d="m -130.19267,-18.03245 -12.6751,2.95876 -6.1607,6.25 -4.1921,6.88992 -1.6516,8.20663 0.6651,28.83202 4.4643,8.66072 6.6965,6.07142 7.5892,3.57143 6.6072,0.80357 9.0178,-1.51785 6.0715,-3.48215 7.3214,-7.85714 2.9464,-8.39286 -0.1007,-32.03308 -1.1493,-5.19906 -5.1785,-6.07143 -5.2679,-4.73214 -5.8002,-2.83241 z"
       id="engine-housing-left"
       inkscape:connector-curvature="0" />
    <path
       style="fill:#b3b3b3;fill-rule:evenodd;stroke:#008000;stroke-width:1px;stroke-linecap:butt;stroke-linejoin:miter;stroke-opacity:1"
       d="m 130.2075,-18.03245 12.6751,2.95876 6.1607,6.25 4.1921,6.88992 1.6516,8.20663 -0.6651,28.83202 -4.4643,8.66072 -6.6965,6.07142 -7.5892,3.57143 -6.6072,0.80357 -9.0178,-1.51785 -6.0715,-3.48215 -7.3214,-7.85714 -2.9464,-8.39286 0.1007,-32.03308 1.1493,-5.19906 5.1785,-6.07143 5.2679,-4.73214 5.8002,-2.83241 z"
       id="engine-housing-right"
       inkscape:connector-curvature="0" />
    <path
       id="fuselage"
       style="fill:none;fill-rule:evenodd;stroke:#008000;stroke-width:1px;stroke-linecap:butt;stroke-linejoin:miter;stroke-opacity:1"
       d="m 8.6126221,49.76161 11.8692999,-5.3033 10.1016,-10.85914 4.2931,-10.35406 0,-12.37437 -2.0203,-13.8896 -12.8794,-43.43655 -19.96969996,0.007 -19.96970004,-0.007 -12.8794,43.43656 -2.0203,13.8896 0,12.37437 4.2931,10.35406 10.1016,10.85914 11.8693001,5.3033 8.60539994,1.10486 z"
       inkscape:connector-curvature="0"
       sodipodi:nodetypes="ccccccccccccccccc" />
    <path
       id="nose"
       style="display:inline;fill:none;fill-rule:evenodd;stroke:#008000;stroke-width:1px;stroke-linecap:butt;stroke-linejoin:miter;stroke-opacity:1"
       d="m -5.4569779,28.67626 -6.6965001,-1.07142 -7.9464,-4.55358 -4.5536,-6.69642 -1.3393,-9.01786 1.1608,-9.01786 3.0357,-9.01786 4.9107,-6.60714 6.4286,-4.55357 10.46420004,-2.23215 10.46419996,2.23215 6.4286,4.55357 4.9107,6.60714 3.0357,9.01786 1.1608,9.01786 -1.3393,9.01786 -4.5536,6.69642 -7.9464,4.55358 -6.6964999,1.07142 -5.46420006,0.0893 z"
       inkscape:connector-curvature="0"
       sodipodi:nodetypes="ccccccccccccccccccccc" />
    <path
       style="fill:none;fill-rule:evenodd;stroke:#008000;stroke-width:1px;stroke-linecap:butt;stroke-linejoin:miter;stroke-opacity:1"
       d="m -22.186078,42.6108 2.8741,-1.98357 6.9799,-1.05806 12.33930004,-0.89286 12.33929996,0.89286 6.9799,1.05806 2.8741,1.98357 -1.7186,1.84751 -11.8692999,5.3033 -8.60540006,1.10487 -8.60539994,-1.10486 -11.8693001,-5.3033 z"
       id="fuselage-bottom"
       inkscape:connector-curvature="0"
       sodipodi:nodetypes="ccccccc" />
    <path
       style="fill:#cccccc;fill-rule:evenodd;stroke:#008000;stroke-width:1px;stroke-linecap:butt;stroke-linejoin:miter;stroke-opacity:1"
       d="m -133.22487,-14.44869 -5.8929,1.51786 -4.2857,3.21428 -4.1071,4.91072 -2.0409,3.08371 -1.4485,8.33756 -0.1713,5.98944 2.5,5.17857 4.7321,5.625 7.5,4.91072 7.2321,1.07143 6.875,-0.89286 5.3572,-2.94643 5.0893,-5 3.2143,-4.91071 1.1527,-5.17821 -8e-4,-9.75991 -3.1162,-5.68688 -5,-5.625 -8.9286,-4.01786 z"
       id="engine-left"
       inkscape:connector-curvature="0" />
    <path
       style="fill:#cccccc;fill-rule:evenodd;stroke:#008000;stroke-width:1px;stroke-linecap:butt;stroke-linejoin:miter;stroke-opacity:1"
       d="m 133.2397,-14.44869 5.8929,1.51786 4.2857,3.21428 4.1071,4.91072 2.0409,3.08371 1.4485,8.33756 0.1713,5.98944 -2.5,5.17857 -4.7321,5.625 -7.5,4.91072 -7.2321,1.07143 -6.875,-0.89286 -5.3572,-2.94643 -5.0893,-5 -3.2143,-4.91071 -1.1527,-5.17821 8e-4,-9.75991 3.1162,-5.68688 5,-5.625 8.9286,-4.01786 z"
       id="engine-right"
       inkscape:connector-curvature="0" />
    <path
       style="fill:none;fill-rule:evenodd;stroke:#008000;stroke-width:1px;stroke-linecap:butt;stroke-linejoin:miter;stroke-opacity:1"
       d="m -148.72707,28.86249 2.1093,5.52811 4.375,4.73214 6.6072,1.69643 13.4821,0.17857 6.9643,-2.58929 4.7321,-5.53571 0.8425,-5.48027 -4.7945,-4.3619 -2.5658,2.52074 -5.3572,2.94643 -6.875,0.89286 -7.2321,-1.07143 -7.5,-4.91072 z"
       id="intake-left"
       inkscape:connector-curvature="0" />
    <path
       style="fill:none;fill-rule:evenodd;stroke:#008000;stroke-width:1px;stroke-linecap:butt;stroke-linejoin:miter;stroke-opacity:1"
       d="m 148.7419,28.86249 -2.1093,5.52811 -4.375,4.73214 -6.6072,1.69643 -13.4821,0.17857 -6.9643,-2.58929 -4.7321,-5.53571 -0.8425,-5.48027 4.7945,-4.3619 2.5658,2.52074 5.3572,2.94643 6.875,0.89286 7.2321,-1.07143 7.5,-4.91072 z"
       id="intake-right"
       inkscape:connector-curvature="0" />
    <path
       style="fill:#ececec;fill-rule:evenodd;stroke:#008000;stroke-width:1px;stroke-linecap:butt;stroke-linejoin:miter;stroke-opacity:1"
       d="m -32.841878,-3.01886 -67.738602,-4.46114 0.075,-10.14488 71.703002,0.9844 z"
       id="wing-top-left"
       inkscape:connector-curvature="0"
       sodipodi:nodetypes="cc" />
    <path
       style="fill:#ececec;fill-rule:evenodd;stroke:#008000;stroke-width:1px;stroke-linecap:butt;stroke-linejoin:miter;stroke-opacity:1"
       d="m 32.856722,-3.01886 67.738578,-4.46114 -0.075,-10.14488 -71.702978,0.9844 z"
       id="wing-top-right"
       inkscape:connector-curvature="0"
       sodipodi:nodetypes="cc" />
    <path
       style="fill:none;fill-rule:evenodd;stroke:#008000;stroke-width:1px;stroke-linecap:butt;stroke-linejoin:miter;stroke-opacity:1"
       d="m -16.083178,-40.12917 -3.2131,4.87691 -0.3572,13.30352 10.0893001,-2.14286 19.1428003,0 10.0892996,2.14286 -0.3572,-13.30352 -3.2131,-4.87691 z"
       id="windscreen-inner"
       inkscape:connector-curvature="0" />
    <path
       id="windscreen-outer"
       style="display:inline;fill:none;fill-rule:evenodd;stroke:#008000;stroke-width:1px;stroke-linecap:butt;stroke-linejoin:miter;stroke-opacity:1"
       d="m 0.00722204,-39.98445 21.83019996,-0.19634 6.9799,23.54031 -9.1494,-5.30826 -10.0892996,-2.14286 -9.57140036,0 m 0,-15.89285 -21.83020004,-0.19634 -6.9799,23.54031 9.1494,-5.30826 10.0893001,-2.14286 9.57139994,0"
       inkscape:connector-curvature="0" />
    <path
       style="fill:none;fill-rule:evenodd;stroke:#008000;stroke-width:1px;stroke-linecap:butt;stroke-linejoin:miter;stroke-opacity:1"
       d="m -33.999978,4.94339 -122.414492,-7.06139 0.3469,-16.26968 127.265092,1.7472 -4.0394,13.62162 z"
       id="wing-mid-left"
       inkscape:connector-curvature="0" />
    <path
       style="fill:none;fill-rule:evenodd;stroke:#008000;stroke-width:1px;stroke-linecap:butt;stroke-linejoin:miter;stroke-opacity:1"
       d="m 34.014822,4.94339 122.414478,-7.06139 -0.3469,-16.26968 -127.265078,1.7472 4.0394,13.62162 z"
       id="wing-mid-right"
       inkscape:connector-curvature="0" />
    <path
       style="fill:none;fill-rule:evenodd;stroke:#008000;stroke-width:1px;stroke-linecap:butt;stroke-linejoin:miter;stroke-opacity:1"
       d="m 428.8992,-18.29715 -394.022178,35.1877 0,-6.01981 -0.8622,-5.92735 z"
       id="wing-bottom-right"
       inkscape:connector-curvature="0" />
    <path
       style="fill:none;fill-rule:evenodd;stroke:#008000;stroke-width:1px;stroke-linecap:butt;stroke-linejoin:miter;stroke-opacity:1"
       d="m -428.88437,-18.29715 394.022192,35.1877 0,-6.01981 0.8622,-5.92735 z"
       id="wing-bottom-left"
       inkscape:connector-curvature="0" />
    <path
       style="fill:none;fill-rule:evenodd;stroke:#008000;stroke-width:1px;stroke-linecap:butt;stroke-linejoin:miter;stroke-opacity:1"
       d="m -143.93917,23.40845 -10.2679,11.69643 4.4643,8.66072 6.6965,6.07142 7.5892,3.57143 6.6072,0.80357 9.0178,-1.51785 6.0715,-3.48215 7.3214,-7.85714 2.9464,-8.39286 -10.9163,-9.93145 -2.5658,2.52074 -5.3572,2.94643 -6.875,0.89286 -7.2321,-1.07143 z"
       id="engine-mid-left"
       inkscape:connector-curvature="0" />
    <path
       style="fill:none;fill-rule:evenodd;stroke:#008000;stroke-width:1px;stroke-linecap:butt;stroke-linejoin:miter;stroke-opacity:1"
       d="m 143.954,23.40845 10.2679,11.69643 -4.4643,8.66072 -6.6965,6.07142 -7.5892,3.57143 -6.6072,0.80357 -9.0178,-1.51785 -6.0715,-3.48215 -7.3214,-7.85714 -2.9464,-8.39286 10.9163,-9.93145 2.5658,2.52074 5.3572,2.94643 6.875,0.89286 7.2321,-1.07143 z"
       id="engine-mid-right"
       inkscape:connector-curvature="0" />
    <path
       inkscape:connector-curvature="0"
       style="fill:none;fill-rule:evenodd;stroke:#008000;stroke-width:1px;stroke-linecap:butt;stroke-linejoin:miter;stroke-opacity:1"
       d="m -138.96147,51.7593 2.4719,-7.40713 13.5107,0 3.1468,8.342 -9.0178,1.51785 -6.6072,-0.80357 z"
       id="engine-bottom-left" />
    <path
       inkscape:connector-curvature="0"
       style="fill:none;fill-rule:evenodd;stroke:#008000;stroke-width:1px;stroke-linecap:butt;stroke-linejoin:miter;stroke-opacity:1"
       d="m 138.9763,51.7593 -2.4719,-7.40713 -13.5107,0 -3.1468,8.342 9.0178,1.51785 6.6072,-0.80357 z"
       id="engine-bottom-right" />
  </g>
  <g
     inkscape:groupmode="layer"
     id="layer5"
     inkscape:label="chute"
     sodipodi:insensitive="true">
    <path
       style="display:inline;fill:#ececec;fill-rule:evenodd;stroke:#808000;stroke-width:1px;stroke-linecap:butt;stroke-linejoin:miter;stroke-opacity:1"
       d="m 1.3725439,-167.89344 -43.5909999,7.86039 -27.6579,17.04712 -25.9338,32.80982 190.92381,-0.80559 -24.9732,-31.41782 -27.5281,-19.43178 z"
       id="path4693"
       inkscape:connector-curvature="0"
       sodipodi:nodetypes="cccccccc" />
    <path
       style="display:inline;fill:none;fill-rule:evenodd;stroke:#808000;stroke-width:1px;stroke-linecap:butt;stroke-linejoin:miter;stroke-opacity:1"
       d="m -95.810156,-110.17611 80.754,111.8786353 -43.6943,-112.0350053 z"
       id="path4695"
       inkscape:connector-curvature="0"
       sodipodi:nodetypes="cccc" />
    <path
       style="display:inline;fill:none;fill-rule:evenodd;stroke:#808000;stroke-width:1px;stroke-linecap:butt;stroke-linejoin:miter;stroke-opacity:1"
       d="m 58.057354,-110.82534 -44.2269,112.6256053 81.2832,-112.7819653 z"
       id="path4697"
       inkscape:connector-curvature="0"
       sodipodi:nodetypes="cccc" />
    <path
       style="display:inline;fill:none;fill-rule:evenodd;stroke:#808000;stroke-width:1px;stroke-linecap:butt;stroke-linejoin:miter;stroke-opacity:1"
       d="m -32.972156,-110.44125 17.916,112.1437753 14.70789985,-112.2814253 z"
       id="path4699"
       inkscape:connector-curvature="0"
       sodipodi:nodetypes="cccc" />
    <path
       style="display:inline;fill:none;fill-rule:evenodd;stroke:#808000;stroke-width:1px;stroke-linecap:butt;stroke-linejoin:miter;stroke-opacity:1"
       d="m 31.470154,-110.71316 -17.6397,112.5134253 -14.17871015,-112.3791653 z"
       id="path4701"
       inkscape:connector-curvature="0"
       sodipodi:nodetypes="cccc" />
    <path
       style="display:inline;fill:none;fill-rule:evenodd;stroke:#000000;stroke-width:1px;stroke-linecap:butt;stroke-linejoin:miter;stroke-opacity:1"
       d="m -0.14685615,1.9009653 -9.46569965,-5.13561 -1.0069002,-7.5523603 5.2362999,-6.64608 10.47261,0.1007 2.4167,6.34398 -0.6042,7.9551603 z"
       id="path4705"
       inkscape:connector-curvature="0" />
    <path
       style="display:inline;fill:none;fill-rule:evenodd;stroke:#000000;stroke-width:1px;stroke-linecap:butt;stroke-linejoin:miter;stroke-opacity:1"
       d="m -0.14685615,1.9009653 -14.90929985,-0.19844 -13.5921,22.0646797 4.9843,4.55708 11.3927,-15.52255 1.9225,24.77912 c 0,0 16.4482099,0.71204 16.4482099,0.14241 0,-0.56964 1.7089,-24.35189 1.7089,-24.35189 l 9.6838001,14.6681 3.9875,-4.69949 -7.6492,-21.5397197 z"
       id="path4709"
       inkscape:connector-curvature="0"
       sodipodi:nodetypes="ccccccsccccc" />
    <path
       style="display:inline;fill:none;fill-rule:evenodd;stroke:#000000;stroke-width:1px;stroke-linecap:butt;stroke-linejoin:miter;stroke-opacity:1"
       d="m -10.348756,37.580855 -1.2105,28.33934 8.4020999,1.56649 2.42099995,-22.21576 c 0,0 1.2817,22.21576 1.85130005,22.21576 0.5696,0 8.11731,-1.13927 8.11731,-1.13927 l -3.133,-28.62415 z"
       id="path4711"
       inkscape:connector-curvature="0"
       sodipodi:nodetypes="ccccsccc" />
  </g>
  <g
     inkscape:groupmode="layer"
     id="layer3"
     inkscape:label="props"
     style="display:none"
     sodipodi:insensitive="true">
    <path
       style="fill:none;fill-rule:evenodd;stroke:#000080;stroke-width:1px;stroke-linecap:butt;stroke-linejoin:miter;stroke-opacity:1"
       d="m -5.1121063,-5.9241173 -7.3473397,-15.3640597 7.1562097,-67.363082 10.27252,0.04249 6.6209803,67.614032 -6.9985303,15.2054297 z"
       id="prop-top"
       inkscape:connector-curvature="0"
       sodipodi:nodetypes="ccccccc" />
    <path
       style="display:inline;fill:none;fill-rule:evenodd;stroke:#000080;stroke-width:1px;stroke-linecap:butt;stroke-linejoin:miter;stroke-opacity:1"
       d="m -2.8230063,7.2605027 -9.6319997,14.0450123 -61.91628,27.48409 -5.0994,-8.91751 55.24495,-39.54096229 16.6675497,-1.54181001 z"
       id="prop-left"
       inkscape:connector-curvature="0"
       sodipodi:nodetypes="ccccccc" />
    <path
       style="display:inline;fill:none;fill-rule:evenodd;stroke:#000080;stroke-width:1px;stroke-linecap:butt;stroke-linejoin:miter;stroke-opacity:1"
       d="m 7.9499037,-1.2945573 16.9793403,1.31905001 54.76003,39.87900229 -5.17307,8.87501 -61.86595,-28.07308 -9.6690603,-13.6636223 z"
       id="prop-right"
       inkscape:connector-curvature="0"
       sodipodi:nodetypes="ccccccc" />
  </g>
  <g
     inkscape:groupmode="layer"
     id="layer4"
     inkscape:label="wheel"
     sodipodi:insensitive="true">
    <path
       style="display:inline;fill:none;fill-rule:evenodd;stroke:#ff0000;stroke-width:1px;stroke-linecap:butt;stroke-linejoin:miter;stroke-opacity:1"
       d="m 119.21201,90.94135 0,35.34506 3.12164,8.76074 4.63212,3.12164 5.337,0 4.12863,-2.51745 3.62513,-9.26423 0,-35.54646 -2.92025,-6.94817 -4.12862,-2.71886 -6.34398,0.1007 -4.02793,3.02095 z"
       id="path4687"
       inkscape:connector-curvature="0"
       sodipodi:nodetypes="ccccccccccccc" />
    <path
       style="display:inline;fill:none;fill-rule:evenodd;stroke:#ff0000;stroke-width:1px;stroke-linecap:butt;stroke-linejoin:miter;stroke-opacity:1"
       d="m 112.74583,48.10711 1.43127,64.48435 5.03491,0.70488 0,-60.96629 z"
       id="path4689"
       inkscape:connector-curvature="0" />
    <path
       style="display:inline;fill:none;fill-rule:evenodd;stroke:#ff0000;stroke-width:1px;stroke-linecap:butt;stroke-linejoin:miter;stroke-opacity:1"
       d="m 140.05653,113.87753 5.90067,-1.28168 0.45215,-65.79454 -5.45914,4.02908 z"
       id="path4691"
       inkscape:connector-curvature="0" />
  </g>
</svg>
